<svg width="956" height="956" viewBox="0 0 956 956" fill="none" xmlns="http://www.w3.org/2000/svg">
<g opacity="0.1">
<path d="M452.233 734.178C326.832 770.252 257.971 593.542 231.681 530.505C179.25 404.582 42.4972 316.75 52.58 224.062C62.6628 131.375 176.561 140.637 176.561 140.637" stroke="#BDBDBD" stroke-width="6" stroke-miterlimit="10" stroke-linejoin="round"/>
<path d="M444.391 734.178C570.538 700.718 529.46 518.257 519.601 450.664C499.958 315.629 572.181 170.063 515.941 95.7494C459.702 21.4353 366.716 87.8325 366.716 87.8325" stroke="#BDBDBD" stroke-width="6" stroke-miterlimit="10" stroke-linejoin="round"/>
<path d="M760.617 354.616C823.522 354.616 874.516 303.622 874.516 240.718C874.516 177.813 823.522 126.819 760.617 126.819C697.713 126.819 646.719 177.813 646.719 240.718C646.719 303.622 697.713 354.616 760.617 354.616Z" fill="#878787"/>
<path d="M764.651 332.658C819.965 332.658 864.807 287.817 864.807 232.502C864.807 177.188 819.965 132.346 764.651 132.346C709.336 132.346 664.495 177.188 664.495 232.502C664.495 287.817 709.336 332.658 764.651 332.658Z" fill="#BDBDBD"/>
<path d="M518.257 440.133C511.609 490.473 593.99 674.353 466.199 724.693C323.098 781.157 269.697 571.21 231.755 530.505" stroke="#41D399" stroke-width="8" stroke-miterlimit="10"/>
<path d="M243.705 549.252C243.705 549.252 324.144 634.097 418.474 595.185C507.875 558.289 521.767 460.374 521.767 460.374" stroke="#41D399" stroke-width="5" stroke-miterlimit="10"/>
<path opacity="0.22" d="M754.045 160.055C714.909 169.167 690.635 208.229 699.673 247.365C701.017 253.191 703.108 258.867 705.872 264.244L710.95 274.253C696.61 292.999 684.959 300.169 681.001 321.903C691.158 331.837 703.034 339.753 716.029 345.28C716.029 345.206 716.104 345.131 716.104 345.056C716.104 345.131 716.178 345.206 716.178 345.355C737.614 354.467 762.037 357.23 786.534 351.554C789.298 350.882 791.912 350.06 794.526 349.239L792.21 328.326C792.21 328.326 795.198 301.812 795.87 300.393C797.588 297.032 804.534 295.24 808.119 293.148C816.783 287.92 824.326 280.825 830.152 272.535C835.96 264.162 839.957 254.669 841.886 244.664C843.815 234.658 843.634 224.36 841.355 214.428C832.243 175.292 793.107 150.943 754.045 160.055Z" fill="#212121"/>
<path d="M451.262 717.224C522.887 881.312 632.678 904.54 713.788 890.424C785.04 877.952 879.371 814.094 879.147 698.328C878.848 558.812 785.787 567.625 735.373 478.224C672.561 366.79 758.153 264.468 758.153 264.468" stroke="#41D399" stroke-width="8" stroke-miterlimit="10"/>
<path opacity="0.22" d="M707.589 289.563C707.589 289.563 721.78 282.319 735.373 290.086C756.883 302.335 758.974 319.812 758.974 319.812C758.974 319.812 771.97 293.97 778.916 286.949C785.787 279.854 737.315 244.676 726.336 258.195C715.357 271.713 707.589 289.563 707.589 289.563Z" fill="#212121"/>
<path d="M207.855 104.861C196.652 104.936 186.793 110.313 180.296 118.454L171.034 111.135C162.595 104.488 150.197 110.538 150.271 121.293L150.57 160.055C150.645 170.81 163.118 176.711 171.408 169.914L180.445 162.595C187.018 170.736 197.026 176.038 208.303 175.964C227.946 175.814 243.78 159.757 243.631 140.114C243.481 120.471 227.498 104.712 207.855 104.861ZM396.815 91.2681L377.023 57.9575C371.496 48.6963 357.753 49.966 354.019 59.9741L349.911 71.0278C340.127 67.3681 328.924 67.891 319.289 73.6419C315.27 76.0272 311.76 79.1816 308.961 82.9248C306.161 86.668 304.128 90.9264 302.976 95.4564C301.825 99.9863 301.578 104.699 302.25 109.324C302.921 113.95 304.498 118.398 306.891 122.413C309.276 126.432 312.431 129.942 316.174 132.741C319.917 135.54 324.175 137.574 328.705 138.726C333.235 139.877 337.948 140.124 342.573 139.452C347.199 138.781 351.647 137.203 355.662 134.811C365.371 129.06 371.197 119.351 372.616 108.969L384.118 110.538C394.723 111.957 402.342 100.529 396.815 91.2681Z" fill="#616161"/>
<path d="M778.169 286.949C815.788 286.949 846.284 256.453 846.284 218.834C846.284 181.215 815.788 150.719 778.169 150.719C740.55 150.719 710.054 181.215 710.054 218.834C710.054 256.453 740.55 286.949 778.169 286.949Z" fill="#424242"/>
<path d="M781.605 266.41C810.809 266.41 834.483 242.736 834.483 213.532C834.483 184.327 810.809 160.653 781.605 160.653C752.401 160.653 728.726 184.327 728.726 213.532C728.726 242.736 752.401 266.41 781.605 266.41Z" fill="#D1D1D1"/>
<path d="M316.451 112.853C310.252 103.965 311.447 87.3844 322.127 79.8409C332.808 72.2975 348.94 75.5837 355.139 85.5172C362.085 96.5709 343.936 86.6375 333.256 94.1809C322.575 101.724 323.92 123.608 316.451 112.853ZM186.793 128.836C189.482 118.305 202.702 108.372 215.399 111.508C228.096 114.645 236.162 128.911 232.726 140.114C228.917 152.587 224.511 132.346 211.814 129.284C199.192 126.147 183.582 141.533 186.793 128.836Z" fill="#757575"/>
</g>
</svg>
